{"title":"Snuf de Hond en de IJsvogel-AC3-XviD-DVDRip 2010 TBS","uid":6134119,"size":1461343674,"categoryP":"video","categoryS":"movies","magnet":"?xt=urn:btih:d4941d6ee909eba10f31e433c6674840ae00c3f2&amp;dn=Snuf+de+Hond+en+de+IJsvogel-AC3-XviD-DVDRip+2010+TBS&amp;tr=udp%3A%2F%2Ftracker.openbittorrent.com%3A80&amp;tr=udp%3A%2F%2Fopen.demonii.com%3A1337&amp;tr=udp%3A%2F%2Ftracker.coppersurfer.tk%3A6969&amp;tr=udp%3A%2F%2Fexodus.desync.com%3A6969","seeders":0,"leechers":1,"uploader":"FatFreddy30","files":-1,"time":1296235265,"description":"Snuf de Hond en de IJsvogel (2010) Alternatieve titels: Snuf en de IJsvogel, Snuf De Hond - En de IJsvogel \n\nNederland\nFamilie / Avontuur\n85 minuten\n\ngeregisseerd door Steven de Jong\nmet Ydwer Bosma, Joosje Duk en Pim Wessels\n\nOp de Vredehoeve is een Bed &amp; Breakfast gekomen met de mogelijkheid om boten te huren. Met een van die boten, 'De IJsvogel', gaan Tom en Mirjam op vakantie. Ze gaan hierbij verschillende jaarmarkten af. Op een van de markten ziet Snuf twee jongens, Niels en Jimmy, die aan het zakkenrollen zijn in opdracht van hun vader. Op een nacht breken die twee jongens in en de bewoner ziet de twee jongens en hun hond Loebas wegrennen. De eigenaar verdenkt Tom en Mirjam die hij die dag zich verdacht zag gedragen op de jaarmarkt en stapt naar de politie. Ze worden hierna onterecht gevangengenomen. Met hulp van Snuf ontsnappen ze om zo hun onschuld te gaan bewijzen.\n\nAudio: Dutch-Nederlands.\n &lt;a href=&quot;\nhttp://moviemeter.nl/film/73346&quot; rel=&quot;nofollow&quot; target=&quot;_NEW&quot;&gt;\nhttp://moviemeter.nl/film/73346&lt;/a&gt;\n\nGeneral\nComplete name                    : Snuf de Hond en de IJsvogel-AC3-XviD-DVDRip 2010 TBS\\Snuf de Hond en de IJsvogel-AC3-XviD-DVDRip 2010 TBS.avi\nFormat                           : AVI\nFormat/Info                      : Audio Video Interleave\nFile size                        : 1.36 GiB\nDuration                         : 1h 18mn\nOverall bit rate                 : 2 496 Kbps\nWriting application              : VirtualDubMod 1.5.4.1 (build 2178/release)\nWriting library                  : VirtualDubMod build 2178/release\n\nVideo\nID                               : 0\nFormat                           : MPEG-4 Visual\nFormat profile                   : Simple@L3\nFormat settings, BVOP            : No\nFormat settings, QPel            : No\nFormat settings, GMC             : No warppoints\nFormat settings, Matrix          : Default (H.263)\nCodec ID                         : XVID\nCodec ID/Hint                    : XviD\nDuration                         : 1h 18mn\nBit rate                         : 2 038 Kbps\nWidth                            : 720 pixels\nHeight                           : 400 pixels\nDisplay aspect ratio             : 16:9\nFrame rate                       : 25.000 fps\nResolution                       : 8 bits\nColorimetry                      : 4:2:0\nScan type                        : Progressive\nBits/(Pixel*Frame)               : 0.283\nStream size                      : 1.11 GiB (82%)\nWriting library                  : XviD 1.1.2 (UTC 2006-11-01)\n\nAudio\nID                               : 1\nFormat                           : AC-3\nFormat/Info                      : Audio Coding 3\nCodec ID                         : 2000\nDuration                         : 1h 18mn\nBit rate mode                    : Constant\nBit rate                         : 448 Kbps\nChannel(s)                       : 6 channels\nChannel positions                : Front: L C R, Surround: L R, LFE\nSampling rate                    : 48.0 KHz\nStream size                      : 250 MiB (18%)\nAlignment                        : Split accross interleaves\nInterleave, duration             : 40 ms (1.00 video frame)\nInterleave, preload duration     : 500 ms\n\nThanks to Just4fun-Team.\n\nBlackbeard  TBS.","torrent":{"xt":"urn:btih:d4941d6ee909eba10f31e433c6674840ae00c3f2","amp;dn":"Snuf+de+Hond+en+de+IJsvogel-AC3-XviD-DVDRip+2010+TBS","amp;tr":["udp%3A%2F%2Ftracker.openbittorrent.com%3A80","udp%3A%2F%2Fopen.demonii.com%3A1337","udp%3A%2F%2Ftracker.coppersurfer.tk%3A6969","udp%3A%2F%2Fexodus.desync.com%3A6969"],"infoHash":"d4941d6ee909eba10f31e433c6674840ae00c3f2","infoHashBuffer":{"type":"Buffer","data":[212,148,29,110,233,9,235,161,15,49,228,51,198,103,72,64,174,0,195,242]},"announce":[],"urlList":[]}}